replay
version=1
nRows=20
nColumns=40
inDegrees=no
endheader
time	/jointset/ground_pelvis/pelvis_tilt/value	/jointset/ground_pelvis/pelvis_list/value	/jointset/ground_pelvis/pelvis_rotation/value	/jointset/ground_pelvis/pelvis_tx/value	/jointset/ground_pelvis/pelvis_ty/value	/jointset/ground_pelvis/pelvis_tz/value	/jointset/hip_r/hip_flexion_r/value	/jointset/hip_r/hip_adduction_r/value	/jointset/hip_r/hip_rotation_r/value	/jointset/walker_knee_r/knee_angle_r/value	/jointset/patellofemoral_r/knee_angle_r_beta/value	/jointset/ankle_r/ankle_angle_r/value	/jointset/subtalar_r/subtalar_angle_r/value	/jointset/mtp_r/mtp_angle_r/value	/jointset/hip_l/hip_flexion_l/value	/jointset/hip_l/hip_adduction_l/value	/jointset/hip_l/hip_rotation_l/value	/jointset/walker_knee_l/knee_angle_l/value	/jointset/patellofemoral_l/knee_angle_l_beta/value	/jointset/ankle_l/ankle_angle_l/value	/jointset/subtalar_l/subtalar_angle_l/value	/jointset/mtp_l/mtp_angle_l/value	/jointset/back/lumbar_extension/value	/jointset/back/lumbar_bending/value	/jointset/back/lumbar_rotation/value	/jointset/acromial_r/arm_flex_r/value	/jointset/acromial_r/arm_add_r/value	/jointset/acromial_r/arm_rot_r/value	/jointset/elbow_r/elbow_flex_r/value	/jointset/radioulnar_r/pro_sup_r/value	/jointset/radius_hand_r/wrist_flex_r/value	/jointset/radius_hand_r/wrist_dev_r/value	/jointset/acromial_l/arm_flex_l/value	/jointset/acromial_l/arm_add_l/value	/jointset/acromial_l/arm_rot_l/value	/jointset/elbow_l/elbow_flex_l/value	/jointset/radioulnar_l/pro_sup_l/value	/jointset/radius_hand_l/wrist_flex_l/value	/jointset/radius_hand_l/wrist_dev_l/value
0	-0.1845349952	-0.1650391664	-0.3015951745	1.175188843	1.049273269	-0.09741293673	0.2767923505	0.1864337197	0.2170186216	0.1466600056	0.1466600056	-0.20289707	-0.1822156322	1.225753071e-05	0.1626350523	-0.1658251135	-0.2479091761	0.09042971227	0.09042971227	-0.09903776448	-0.1537121981	9.738998955e-06	0.3478773187	0.9451624709	-0.8480112326	-0.8771156718	-1.287327394	-1.139747033	0.6073797155	0.1933503698	0.4873205158	-0.7844902148	-0.1036331592	0.7616776114	-1.09641372	1.770753164	0.1936639516	-0.00058237423	5.782754967e-05
0.002777778	-0.1841851794	-0.1647263016	-0.3018062915	1.174963005	1.050841918	-0.09753038875	0.2769381938	0.1859119638	0.2169988508	0.1465277571	0.1465277571	-0.2028568268	-0.1822535715	1.12306835e-05	0.162959684	-0.1654066688	-0.2479052874	0.09019275806	0.09019275806	-0.09898260798	-0.1537993664	1.003431588e-05	0.3479495764	0.94575558	-0.8489126694	-0.8780085084	-1.288077225	-1.138518491	0.6083038075	0.192836877	0.488539276	-0.7849554488	-0.1034827906	0.7614510389	-1.096432594	1.770578149	0.1936578268	-0.0005971020304	7.048353806e-05
0.005555556	-0.1838786171	-0.1644473952	-0.302015429	1.174756098	1.052285062	-0.09764593899	0.2770743412	0.1854205804	0.2169844503	0.1463950304	0.1463950304	-0.2028079894	-0.1823152426	1.010454681e-05	0.1632714455	-0.1650367089	-0.2478588587	0.08999031783	0.08999031783	-0.09893180859	-0.1538906193	1.003032257e-05	0.3480899095	0.9463647103	-0.8497911658	-0.8786103196	-1.288767238	-1.137823523	0.60912473	0.1925784929	0.4898095346	-0.7852269169	-0.1033197411	0.7612142453	-1.09645664	1.770423585	0.1936537831	-0.0006134538584	8.3897234e-05
0.008333333	-0.1836161818	-0.1642103263	-0.3021991407	1.174570913	1.053585248	-0.09776023619	0.2771972048	0.1849597762	0.2169766357	0.1462695644	0.1462695644	-0.2027468858	-0.1824056346	8.868736042e-06	0.1635650168	-0.1647186872	-0.2477728558	0.08982881231	0.08982881231	-0.09888017261	-0.1540029955	9.802632087e-06	0.3482994553	0.9469672528	-0.8506321837	-0.8789521681	-1.289357228	-1.137609898	0.6097845078	0.1925014398	0.491117213	-0.7853567937	-0.1031398909	0.7609583056	-1.096478212	1.770297576	0.1936513394	-0.000628492369	9.639246614e-05
0.011111111	-0.1833986868	-0.1640225261	-0.3023349657	1.174410152	1.054725267	-0.09787387274	0.2773034738	0.1845296044	0.2169771623	0.146159345	0.146159345	-0.2026696928	-0.1825294676	7.64083323e-06	0.1638350284	-0.1644556648	-0.2476508695	0.08971442845	0.08971442845	-0.09882260777	-0.1541533404	9.408971632e-06	0.3485781569	0.9475406178	-0.8514203367	-0.8790614527	-1.289807888	-1.137826621	0.6102255105	0.1925386371	0.4924475705	-0.7853950785	-0.1029391131	0.760674423	-1.096489859	1.770208024	0.1936500394	-0.0006393458931	0.0001063080733
0.013888889	-0.1832257428	-0.1638829736	-0.3024171291	1.174274471	1.05569766	-0.09798666933	0.277394014	0.1841279732	0.2169882786	0.1460681516	0.1460681516	-0.2025762367	-0.1826857594	6.525403071e-06	0.1640782813	-0.1642435118	-0.2474986263	0.08964657766	0.08964657766	-0.09875767813	-0.1543458627	8.929083677e-06	0.3489150436	0.9480670148	-0.8521515757	-0.8789758315	-1.29012323	-1.138369348	0.6104374066	0.1926641453	0.4937451244	-0.7853903825	-0.1027139503	0.7603616457	-1.096490246	1.770155811	0.1936492922	-0.0006449450491	0.0001131036926
0.016666667	-0.1830952841	-0.1637798464	-0.3024611066	1.174161888	1.056507658	-0.09809746849	0.2774748327	0.1837500596	0.2170125111	0.1459939766	0.1459939766	-0.2024712938	-0.182866225	5.501411903e-06	0.1642942971	-0.1640688962	-0.2473242567	0.08961584414	0.08961584414	-0.09868878043	-0.1545681554	8.43574548e-06	0.3492854073	0.9485349361	-0.8528373765	-0.8787476289	-1.290363762	-1.139061157	0.61047214	0.1928784939	0.4949210211	-0.785379706	-0.1024618212	0.7600292629	-1.096486001	1.770132812	0.193648306	-0.0006466320459	0.0001177500442
0.019444444	-0.1830048961	-0.1637005971	-0.3024837729	1.174070252	1.057161356	-0.09820504343	0.2775520011	0.1833908035	0.2170524602	0.1459343233	0.1459343233	-0.2023599968	-0.1830621067	4.53108689e-06	0.1644824716	-0.1639178197	-0.2471361392	0.08961209992	0.08961209992	-0.09861981935	-0.1548065935	7.908225143e-06	0.3496631896	0.9489332301	-0.853490128	-0.8784286469	-1.290593708	-1.139718564	0.6103869484	0.1931412468	0.4959200937	-0.7853780749	-0.102180188	0.7596872311	-1.096484327	1.770130473	0.1936462538	-0.0006460962208	0.0001213751901
0.022222222	-0.18295158	-0.1636336167	-0.3024998647	1.173997554	1.057665603	-0.09830831186	0.2776305441	0.1830455138	0.2171105915	0.1458868044	0.1458868044	-0.2022471068	-0.1832653221	3.579180744e-06	0.1646421226	-0.1637770605	-0.2469423439	0.08962601186	0.08962601186	-0.09855448776	-0.1550487273	7.283681889e-06	0.350024592	0.9492519196	-0.8541208201	-0.8780649823	-1.290869536	-1.140174525	0.6102349378	0.1933819815	0.4967219965	-0.7853824509	-0.1018673414	0.7593441869	-1.096491801	1.770141081	0.1936423559	-0.0006449923612	0.0001249874035
0.025	-0.1829291276	-0.1635742414	-0.3025087915	1.173942808	1.058032709	-0.09840725544	0.2777091063	0.1827125703	0.2171884164	0.1458505093	0.1458505093	-0.2021344939	-0.183472711	2.693231623e-06	0.1647733517	-0.1636394028	-0.2467485875	0.08965466541	0.08965466541	-0.09849387882	-0.1552913508	6.596651464e-06	0.3503641021	0.9494899958	-0.8547301659	-0.8776676857	-1.291192193	-1.140395522	0.6100289089	0.1935742563	0.4973460724	-0.7853870794	-0.1015275948	0.7589991257	-1.09651013	1.770162162	0.1936362885	-0.0006437165801	0.0001282837773
0.027777778	-0.1829299429	-0.1635210145	-0.3025028432	1.173905499	1.05827744	-0.09850235155	0.277783435	0.1823917649	0.2172867713	0.145825071	0.145825071	-0.2020228105	-0.1836833617	1.915365476e-06	0.1648767126	-0.1635003957	-0.2465592673	0.08969807769	0.08969807769	-0.09843792524	-0.1555353316	5.910998789e-06	0.3506849208	0.9496504918	-0.8553148245	-0.8772327563	-1.291537894	-1.140408383	0.6097632349	0.1937207929	0.4978215172	-0.7853898598	-0.1011679449	0.7586467826	-1.096538848	1.770193528	0.1936279546	-0.0006419906309	0.0001303728677
0.030555556	-0.182946498	-0.1634726039	-0.3024739431	1.173885128	1.058414565	-0.09859410267	0.277849236	0.1820829345	0.217406153	0.1458099689	0.1458099689	-0.2019127959	-0.1838964246	1.242005624e-06	0.1649529131	-0.163355698	-0.2463784118	0.0897563569	0.0897563569	-0.09838657204	-0.1557814434	5.280243728e-06	0.3509909553	0.9497364721	-0.8558721707	-0.8767568123	-1.291882853	-1.140240467	0.6094322179	0.1938271296	0.4981749954	-0.7853903091	-0.1007953946	0.7582819527	-1.096577488	1.770234944	0.1936172762	-0.0006394173181	0.0001303702628
0.033333333	-0.1829724343	-0.1634277454	-0.3024153642	1.173880907	1.058458608	-0.09868280994	0.2779036188	0.1817865762	0.2175467346	0.1458044453	0.1458044453	-0.2018056395	-0.1841104679	6.52942267e-07	0.1650037862	-0.1632024281	-0.2462092261	0.08982936853	0.08982936853	-0.09833987487	-0.1560290406	4.724069482e-06	0.351286501	0.9497517925	-0.8564006384	-0.8762357122	-1.292205709	-1.139921296	0.6090334067	0.1939033106	0.4984293877	-0.7853887534	-0.100416357	0.7579009769	-1.096625487	1.770286817	0.1936041562	-0.0006356982496	0.0001275178813
0.036111111	-0.1830039024	-0.163385199	-0.302323779	1.173891382	1.058423538	-0.09876829958	0.27794684	0.1815046078	0.217708369	0.1458073916	0.1458073916	-0.2017034268	-0.184322699	1.36578182e-07	0.1650334766	-0.1630408375	-0.2460535145	0.08991633364	0.08991633364	-0.09829812106	-0.1562744536	4.189107033e-06	0.3515759242	0.9497020636	-0.8569001445	-0.875662781	-1.292490345	-1.13948503	0.6085715805	0.1939670013	0.4986016248	-0.7853856932	-0.1000359331	0.757503539	-1.096682059	1.770351046	0.1935884379	-0.0006309028705	0.0001213353483
0.038888889	-0.1830375574	-0.1633437559	-0.3021960539	1.173915019	1.058323237	-0.09885035022	0.2779797352	0.1812391473	0.2178905749	0.1458175924	0.1458175924	-0.2016083755	-0.1845301509	-3.197938609e-07	0.1650467376	-0.1628716615	-0.2459125793	0.09001651076	0.09001651076	-0.09826157911	-0.1565135569	3.651476995e-06	0.3518642549	0.9495930988	-0.8573713739	-0.8750316955	-1.292721239	-1.138967313	0.6080528588	0.1940384914	0.4987063314	-0.7853823165	-0.0996590791	0.7570898079	-1.096746363	1.770429667	0.1935699569	-0.0006250405013	0.0001113811293
0.041666667	-0.1830704708	-0.1633021164	-0.3020294045	1.173950288	1.058171436	-0.09892873034	0.278003542	0.1809922977	0.2180926618	0.145833778	0.145833778	-0.2015225804	-0.1847300143	-7.173416038e-07	0.1650486804	-0.1626957017	-0.2457874259	0.09012922894	0.09012922894	-0.09823041953	-0.1567424186	3.13648201e-06	0.3521568936	0.9494307792	-0.8578157035	-0.8743378611	-1.29288433	-1.138402765	0.607484655	0.1941378074	0.4987556849	-0.7853800763	-0.09929043983	0.7566603447	-1.09681746	1.770524332	0.1935486154	-0.000618006687	9.727771984e-05
0.044444444	-0.1831031655	-0.1632574926	-0.3018306265	1.173995615	1.057979924	-0.09900277841	0.2780226951	0.1807661392	0.2183155207	0.1458545593	0.1458545593	-0.2014465088	-0.1849218632	-1.034873542e-06	0.1650446626	-0.1625141377	-0.2456796655	0.0902526906	0.0902526906	-0.09820425979	-0.1569603747	2.633771835e-06	0.3524542066	0.949222951	-0.8582358684	-0.8735935501	-1.29298966	-1.137796123	0.6068879812	0.1942617546	0.4987420256	-0.7853791912	-0.09892942318	0.7562212036	-1.096893279	1.77063196	0.1935253781	-0.0006099632981	7.965989e-05
0.047222222	-0.1831388489	-0.1632059421	-0.3016138508	1.174049395	1.057758989	-0.0990715054	0.2780441308	0.1805627144	0.2185612155	0.1458784469	0.1458784469	-0.2013793714	-0.1851070879	-1.247627942e-06	0.1650402904	-0.1623284263	-0.2455913282	0.09038424825	0.09038424825	-0.09818228942	-0.1571692992	2.117317904e-06	0.3527527968	0.9489789603	-0.8586357366	-0.8728238826	-1.293065817	-1.137128807	0.6062943815	0.1943887419	0.4986426794	-0.7853787285	-0.09857143597	0.7557826555	-1.096970876	1.770745829	0.193502028	-0.000601268564	5.995239129e-05
0.05	-0.1831809459	-0.1631434838	-0.3013931481	1.174110029	1.057518864	-0.09913393173	0.2780750216	0.1803840172	0.2188315675	0.1459039092	0.1459039092	-0.2013203214	-0.1852870762	-1.342791625e-06	0.1650414751	-0.1621400271	-0.2455241656	0.09052134946	0.09052134946	-0.09816364176	-0.1573711586	1.613382649e-06	0.3530497731	0.9487081225	-0.8590197099	-0.8720544029	-1.293141732	-1.136381823	0.6057360448	0.1944968266	0.4984342452	-0.7853775914	-0.0982118547	0.7553550741	-1.097047267	1.770859071	0.1934803676	-0.0005921775931	3.961521743e-05
0.052777778	-0.1832322455	-0.1630669905	-0.3011796154	1.174176115	1.057269257	-0.09918950473	0.2781213614	0.1802310726	0.2191277826	0.1459293199	0.1459293199	-0.2012687098	-0.185462443	-1.327693285e-06	0.1650537436	-0.1619499612	-0.2454792467	0.09066168379	0.09066168379	-0.09814767775	-0.1575673796	1.170031326e-06	0.3533437363	0.9484199941	-0.8593908397	-0.8713092274	-1.293236998	-1.135551701	0.6052338462	0.1945684387	0.498110233	-0.7853755337	-0.09784621334	0.7549476146	-1.097118709	1.77096544	0.19346134	-0.0005828008266	1.990039819e-05
